solid ASCII
  facet normal -1.000000e+00 0.000000e+00 0.000000e+00
    outer loop
      vertex   7.161300e+01 1.064602e+01 5.000000e-01
      vertex   7.161300e+01 5.616840e+00 5.000000e-01
      vertex   7.161300e+01 1.064602e+01 1.500000e+00
    endloop
  endfacet
  facet normal -1.000000e+00 -0.000000e+00 0.000000e+00
    outer loop
      vertex   7.161300e+01 1.064602e+01 1.500000e+00
      vertex   7.161300e+01 5.616840e+00 5.000000e-01
      vertex   7.161300e+01 5.616840e+00 1.500000e+00
    endloop
  endfacet
  facet normal 4.472136e-01 -8.944272e-01 0.000000e+00
    outer loop
      vertex   7.161300e+01 5.616840e+00 5.000000e-01
      vertex   7.664218e+01 8.131430e+00 5.000000e-01
      vertex   7.161300e+01 5.616840e+00 1.500000e+00
    endloop
  endfacet
  facet normal 4.472136e-01 -8.944272e-01 0.000000e+00
    outer loop
      vertex   7.161300e+01 5.616840e+00 1.500000e+00
      vertex   7.664218e+01 8.131430e+00 5.000000e-01
      vertex   7.664218e+01 8.131430e+00 1.500000e+00
    endloop
  endfacet
  facet normal 4.472136e-01 8.944272e-01 -0.000000e+00
    outer loop
      vertex   7.664218e+01 8.131430e+00 5.000000e-01
      vertex   7.161300e+01 1.064602e+01 5.000000e-01
      vertex   7.664218e+01 8.131430e+00 1.500000e+00
    endloop
  endfacet
  facet normal 4.472136e-01 8.944272e-01 0.000000e+00
    outer loop
      vertex   7.664218e+01 8.131430e+00 1.500000e+00
      vertex   7.161300e+01 1.064602e+01 5.000000e-01
      vertex   7.161300e+01 1.064602e+01 1.500000e+00
    endloop
  endfacet
  facet normal 0.000000e+00 0.000000e+00 1.000000e+00
    outer loop
      vertex   7.664218e+01 8.131430e+00 1.500000e+00
      vertex   7.161300e+01 1.064602e+01 1.500000e+00
      vertex   7.161300e+01 5.616840e+00 1.500000e+00
    endloop
  endfacet
  facet normal -1.000000e+00 -1.421085e-15 0.000000e+00
    outer loop
      vertex   6.931300e+01 1.313143e+01 0.000000e+00
      vertex   6.931300e+01 3.131430e+00 0.000000e+00
      vertex   6.931300e+01 1.313143e+01 5.000000e-01
    endloop
  endfacet
  facet normal -1.000000e+00 -1.421085e-15 0.000000e+00
    outer loop
      vertex   6.931300e+01 1.313143e+01 5.000000e-01
      vertex   6.931300e+01 3.131430e+00 0.000000e+00
      vertex   6.931300e+01 3.131430e+00 5.000000e-01
    endloop
  endfacet
  facet normal -7.105427e-16 1.000000e+00 0.000000e+00
    outer loop
      vertex   7.931300e+01 1.313143e+01 0.000000e+00
      vertex   6.931300e+01 1.313143e+01 0.000000e+00
      vertex   7.931300e+01 1.313143e+01 5.000000e-01
    endloop
  endfacet
  facet normal -7.105427e-16 1.000000e+00 0.000000e+00
    outer loop
      vertex   7.931300e+01 1.313143e+01 5.000000e-01
      vertex   6.931300e+01 1.313143e+01 0.000000e+00
      vertex   6.931300e+01 1.313143e+01 5.000000e-01
    endloop
  endfacet
  facet normal 1.000000e+00 0.000000e+00 0.000000e+00
    outer loop
      vertex   7.931300e+01 3.131430e+00 0.000000e+00
      vertex   7.931300e+01 1.313143e+01 0.000000e+00
      vertex   7.931300e+01 3.131430e+00 5.000000e-01
    endloop
  endfacet
  facet normal 1.000000e+00 -0.000000e+00 0.000000e+00
    outer loop
      vertex   7.931300e+01 3.131430e+00 5.000000e-01
      vertex   7.931300e+01 1.313143e+01 0.000000e+00
      vertex   7.931300e+01 1.313143e+01 5.000000e-01
    endloop
  endfacet
  facet normal 4.440892e-16 -1.000000e+00 0.000000e+00
    outer loop
      vertex   6.931300e+01 3.131430e+00 0.000000e+00
      vertex   7.931300e+01 3.131430e+00 0.000000e+00
      vertex   6.931300e+01 3.131430e+00 5.000000e-01
    endloop
  endfacet
  facet normal 4.440892e-16 -1.000000e+00 0.000000e+00
    outer loop
      vertex   6.931300e+01 3.131430e+00 5.000000e-01
      vertex   7.931300e+01 3.131430e+00 0.000000e+00
      vertex   7.931300e+01 3.131430e+00 5.000000e-01
    endloop
  endfacet
  facet normal -0.000000e+00 0.000000e+00 1.000000e+00
    outer loop
      vertex   7.161300e+01 5.616840e+00 5.000000e-01
      vertex   7.931300e+01 3.131430e+00 5.000000e-01
      vertex   7.664218e+01 8.131430e+00 5.000000e-01
    endloop
  endfacet
  facet normal -0.000000e+00 0.000000e+00 1.000000e+00
    outer loop
      vertex   7.664218e+01 8.131430e+00 5.000000e-01
      vertex   7.931300e+01 3.131430e+00 5.000000e-01
      vertex   7.931300e+01 1.313143e+01 5.000000e-01
    endloop
  endfacet
  facet normal 0.000000e+00 -0.000000e+00 1.000000e+00
    outer loop
      vertex   7.664218e+01 8.131430e+00 5.000000e-01
      vertex   7.931300e+01 1.313143e+01 5.000000e-01
      vertex   7.161300e+01 1.064602e+01 5.000000e-01
    endloop
  endfacet
  facet normal 0.000000e+00 -0.000000e+00 1.000000e+00
    outer loop
      vertex   7.161300e+01 1.064602e+01 5.000000e-01
      vertex   7.931300e+01 1.313143e+01 5.000000e-01
      vertex   6.931300e+01 1.313143e+01 5.000000e-01
    endloop
  endfacet
  facet normal 0.000000e+00 0.000000e+00 1.000000e+00
    outer loop
      vertex   7.161300e+01 1.064602e+01 5.000000e-01
      vertex   6.931300e+01 1.313143e+01 5.000000e-01
      vertex   6.931300e+01 3.131430e+00 5.000000e-01
    endloop
  endfacet
  facet normal 0.000000e+00 0.000000e+00 1.000000e+00
    outer loop
      vertex   7.931300e+01 3.131430e+00 5.000000e-01
      vertex   7.161300e+01 5.616840e+00 5.000000e-01
      vertex   6.931300e+01 3.131430e+00 5.000000e-01
    endloop
  endfacet
  facet normal 0.000000e+00 0.000000e+00 1.000000e+00
    outer loop
      vertex   6.931300e+01 3.131430e+00 5.000000e-01
      vertex   7.161300e+01 5.616840e+00 5.000000e-01
      vertex   7.161300e+01 1.064602e+01 5.000000e-01
    endloop
  endfacet
  facet normal -0.000000e+00 0.000000e+00 -1.000000e+00
    outer loop
      vertex   7.931300e+01 3.131430e+00 0.000000e+00
      vertex   6.931300e+01 3.131430e+00 0.000000e+00
      vertex   7.931300e+01 1.313143e+01 0.000000e+00
    endloop
  endfacet
  facet normal 0.000000e+00 0.000000e+00 -1.000000e+00
    outer loop
      vertex   7.931300e+01 1.313143e+01 0.000000e+00
      vertex   6.931300e+01 3.131430e+00 0.000000e+00
      vertex   6.931300e+01 1.313143e+01 0.000000e+00
    endloop
  endfacet
endsolid
